<svg
  xmlns="http://www.w3.org/2000/svg"
  viewBox="0 0 28 28"
  width="28"
  height="28">
  <path
    fill="currentColor"
    d="M8.5 6a.5.5 0 0 0-.5.5V9H7V6.5C7 5.67 7.67 5 8.5 5h12c.83 0 1.5.67 1.5 1.5V9h-1V6.5a.5.5 0 0 0-.5-.5H15v16h2v1h-5v-1h2V6H8.5ZM25 17.5a.5.5 0 1 1-1 0 .5.5 0 0 1 1 0Zm0 1.41a1.5 1.5 0 1 0-1 0V20h-2v1h2v3.93a3.48 3.48 0 0 1-1.1-.47c-.54-.37-.9-.86-.9-1.46h-1c0 1.06.64 1.82 1.35 2.29.7.46 1.54.71 2.15.71.6 0 1.45-.25 2.15-.71A2.76 2.76 0 0 0 28 23h-1c0 .6-.36 1.1-.9 1.46-.36.23-.76.4-1.1.47V21h2v-1h-2v-1.09Z"></path>
</svg>