<svg xmlns="http://www.w3.org/2000/svg" viewBox="0 0 28 28" width="28" height="28"><g fill="currentColor" fill-rule="nonzero"><path fill-rule="evenodd" clip-rule="evenodd" d="M14.48 5.46a.5.5 0 0 0-.96 0l-.98 3.03a.5.5 0 0 1-.47.35H8.88a.5.5 0 0 0-.3.9l2.58 1.87a.5.5 0 0 1 .18.56l-.98 3.03a.5.5 0 0 0 .77.56l2.58-1.87a.5.5 0 0 1 .58 0l2.58 1.87c.4.28.92-.1.77-.56l-.98-3.03a.5.5 0 0 1 .18-.56l2.57-1.87a.5.5 0 0 0-.3-.9h-3.18a.5.5 0 0 1-.47-.35l-.98-3.03zM14 7.24l-.5 1.56a1.5 1.5 0 0 1-1.43 1.04h-1.65l1.33.96c.53.39.75 1.06.55 1.68l-.51 1.57 1.33-.97a1.5 1.5 0 0 1 1.76 0l1.33.97-.5-1.57c-.2-.62.01-1.3.54-1.68l1.33-.96h-1.65a1.5 1.5 0 0 1-1.42-1.04L14 7.24z"></path><path fill-rule="evenodd" clip-rule="evenodd" d="M15 20.95a10 10 0 1 0-1 .05v6h1v-6.05zM14 20a9 9 0 1 0 0-18 9 9 0 0 0 0 18z"></path></g></svg>